<?xml version="1.0" encoding="iso-8859-1"?>
<!-- Generator: Adobe Illustrator 19.0.0, SVG Export Plug-In . SVG Version: 6.00 Build 0)  -->
<svg version="1.1" id="Layer_1" xmlns="http://www.w3.org/2000/svg" xmlns:xlink="http://www.w3.org/1999/xlink" x="0px" y="0px"
	 viewBox="0 0 491.52 491.52" style="enable-background:new 0 0 491.52 491.52;" xml:space="preserve">
<rect x="34.012" y="132.803" style="fill:#3A556A;" width="423.475" height="222.31"/>
<path style="fill:#64798A;" d="M473.677,0H17.843C7.988,0,0,8.006,0,17.881v115.438c0,9.875,7.988,17.88,17.843,17.88h455.834
	c9.854,0,17.843-8.005,17.843-17.88V17.881C491.52,8.006,483.531,0,473.677,0z"/>
<rect x="242.534" y="26.865" style="fill:#27A2DB;" width="222.208" height="97.485"/>
<rect x="242.534" y="106.46" style="fill:#2D93BA;" width="222.208" height="17.874"/>
<ellipse style="fill:#44C4A1;" cx="66.504" cy="75.597" rx="25.288" ry="25.344"/>
<ellipse style="fill:#FCD462;" cx="155.464" cy="75.597" rx="25.288" ry="25.344"/>
<path style="fill:#64798A;" d="M473.677,170.161H17.843C7.988,170.161,0,178.165,0,188.041V303.48c0,9.875,7.988,17.88,17.843,17.88
	h455.834c9.854,0,17.843-8.005,17.843-17.88V188.041C491.52,178.165,483.531,170.161,473.677,170.161z"/>
<rect x="242.534" y="197.028" style="fill:#27A2DB;" width="222.208" height="97.485"/>
<rect x="242.534" y="276.634" style="fill:#2D93BA;" width="222.208" height="17.874"/>
<ellipse style="fill:#44C4A1;" cx="66.504" cy="245.76" rx="25.288" ry="25.344"/>
<ellipse style="fill:#FCD462;" cx="155.464" cy="245.76" rx="25.288" ry="25.344"/>
<path style="fill:#64798A;" d="M473.677,340.32H17.843C7.988,340.32,0,348.326,0,358.202V473.64c0,9.875,7.988,17.88,17.843,17.88
	h455.834c9.854,0,17.843-8.005,17.843-17.88V358.202C491.52,348.326,483.531,340.32,473.677,340.32z"/>
<rect x="242.534" y="367.206" style="fill:#27A2DB;" width="222.208" height="97.485"/>
<rect x="242.534" y="446.771" style="fill:#2D93BA;" width="222.208" height="17.874"/>
<ellipse style="fill:#44C4A1;" cx="66.504" cy="415.898" rx="25.288" ry="25.344"/>
<ellipse style="fill:#FCD462;" cx="155.464" cy="415.898" rx="25.288" ry="25.344"/>
<g>
</g>
<g>
</g>
<g>
</g>
<g>
</g>
<g>
</g>
<g>
</g>
<g>
</g>
<g>
</g>
<g>
</g>
<g>
</g>
<g>
</g>
<g>
</g>
<g>
</g>
<g>
</g>
<g>
</g>
</svg>
